<?xml version="1.0" encoding="UTF-8" standalone="no"?><!DOCTYPE svg PUBLIC "-//W3C//DTD SVG 1.1//EN" "http://www.w3.org/Graphics/SVG/1.1/DTD/svg11.dtd"><svg width="100%" height="100%" viewBox="0 0 54 78" version="1.1" xmlns="http://www.w3.org/2000/svg" xmlns:xlink="http://www.w3.org/1999/xlink" xml:space="preserve" xmlns:serif="http://www.serif.com/" style="fill-rule:evenodd;clip-rule:evenodd;stroke-linecap:round;stroke-linejoin:round;stroke-miterlimit:1.5;"><path d="M5,77c-1.061,0 -2.078,-0.421 -2.828,-1.172c-0.751,-0.75 -1.172,-1.767 -1.172,-2.828c-0,-13.136 -0,-54.864 -0,-68c-0,-1.061 0.421,-2.078 1.172,-2.828c0.75,-0.751 1.767,-1.172 2.828,-1.172c8.22,-0 26.711,-0 32.342,-0c1.061,0 2.08,0.422 2.83,1.173c2.636,2.64 9.006,9.019 11.64,11.656c0.749,0.75 1.17,1.766 1.17,2.826c-0,8.162 -0,44.213 -0,56.345c-0,2.209 -1.791,4 -4,4l-43.982,0Z" style="fill:none;stroke:#8a0f24;stroke-width:2px;"/></svg>