<?xml version="1.0" encoding="UTF-8" standalone="no"?><!DOCTYPE svg PUBLIC "-//W3C//DTD SVG 1.1//EN" "http://www.w3.org/Graphics/SVG/1.1/DTD/svg11.dtd"><svg width="100%" height="100%" viewBox="0 0 84 68" version="1.1" xmlns="http://www.w3.org/2000/svg" xmlns:xlink="http://www.w3.org/1999/xlink" xml:space="preserve" xmlns:serif="http://www.serif.com/" style="fill-rule:evenodd;clip-rule:evenodd;stroke-linecap:round;stroke-linejoin:round;stroke-miterlimit:1.5;"><path d="M5,1c-2.209,0 -4,1.791 -4,4c0,11.775 0,46.225 0,58c0,1.061 0.421,2.078 1.172,2.828c0.75,0.751 1.767,1.172 2.828,1.172c13.911,0 60.089,0 74,0c1.061,0 2.078,-0.421 2.828,-1.172c0.751,-0.75 1.172,-1.767 1.172,-2.828c0,-9.686 -0,-34.314 0,-44c-0,-1.061 -0.421,-2.078 -1.172,-2.828c-0.75,-0.751 -1.767,-1.172 -2.828,-1.172c-9.118,0 -31.132,0 -37.343,0c-1.061,0 -2.078,-0.421 -2.829,-1.172c-2.638,-2.638 -9.018,-9.018 -11.656,-11.656c-0.751,-0.751 -1.768,-1.172 -2.829,-1.172c-3.903,0 -13.767,0 -19.343,0Z" style="fill:none;stroke:#8a0f24;stroke-width:2px;"/></svg>